//=====================================
// Salamander Grand Piano V2
// 
// Author: Alexander Holm
// Contact: axeldenstore [at] gmail [dot] com
// License: CC-by
// 
//=====================================

//Notes
<group> amp_veltrack=73 ampeg_release=1

<region> sample=48khz24bit\A0v1.wav lokey=21 hikey=22 lovel=1 hivel=26 pitch_keycenter=21 tune=10
<region> sample=48khz24bit\A0v2.wav lokey=21 hikey=22 lovel=27 hivel=34 pitch_keycenter=21 tune=10
<region> sample=48khz24bit\A0v3.wav lokey=21 hikey=22 lovel=35 hivel=36 pitch_keycenter=21 tune=10
<region> sample=48khz24bit\A0v4.wav lokey=21 hikey=22 lovel=37 hivel=43 pitch_keycenter=21 tune=10
<region> sample=48khz24bit\A0v5.wav lokey=21 hikey=22 lovel=44 hivel=46 pitch_keycenter=21 tune=10
<region> sample=48khz24bit\A0v6.wav lokey=21 hikey=22 lovel=47 hivel=50 pitch_keycenter=21 tune=10
<region> sample=48khz24bit\A0v7.wav lokey=21 hikey=22 lovel=51 hivel=56 pitch_keycenter=21 tune=10
<region> sample=48khz24bit\A0v8.wav lokey=21 hikey=22 lovel=57 hivel=64 pitch_keycenter=21 tune=10
<region> sample=48khz24bit\A0v9.wav lokey=21 hikey=22 lovel=65 hivel=72 pitch_keycenter=21 tune=10
<region> sample=48khz24bit\A0v10.wav lokey=21 hikey=22 lovel=73 hivel=80 pitch_keycenter=21 tune=10
<region> sample=48khz24bit\A0v11.wav lokey=21 hikey=22 lovel=81 hivel=88 pitch_keycenter=21 tune=10
<region> sample=48khz24bit\A0v12.wav lokey=21 hikey=22 lovel=89 hivel=96 pitch_keycenter=21 tune=10
<region> sample=48khz24bit\A0v13.wav lokey=21 hikey=22 lovel=97 hivel=104 pitch_keycenter=21 tune=10
<region> sample=48khz24bit\A0v14.wav lokey=21 hikey=22 lovel=105 hivel=112 pitch_keycenter=21 tune=10
<region> sample=48khz24bit\A0v15.wav lokey=21 hikey=22 lovel=113 hivel=120 pitch_keycenter=21 tune=10
<region> sample=48khz24bit\A0v16.wav lokey=21 hikey=22 lovel=121 pitch_keycenter=21 tune=10
<region> sample=48khz24bit\C1v1.wav lokey=23 hikey=25 lovel=1 hivel=26 pitch_keycenter=24 tune=13
<region> sample=48khz24bit\C1v2.wav lokey=23 hikey=25 lovel=27 hivel=34 pitch_keycenter=24 tune=13
<region> sample=48khz24bit\C1v3.wav lokey=23 hikey=25 lovel=35 hivel=36 pitch_keycenter=24 tune=13
<region> sample=48khz24bit\C1v4.wav lokey=23 hikey=25 lovel=37 hivel=43 pitch_keycenter=24 tune=13
<region> sample=48khz24bit\C1v5.wav lokey=23 hikey=25 lovel=44 hivel=46 pitch_keycenter=24 tune=13
<region> sample=48khz24bit\C1v6.wav lokey=23 hikey=25 lovel=47 hivel=50 pitch_keycenter=24 tune=13
<region> sample=48khz24bit\C1v7.wav lokey=23 hikey=25 lovel=51 hivel=56 pitch_keycenter=24 tune=13
<region> sample=48khz24bit\C1v8.wav lokey=23 hikey=25 lovel=57 hivel=64 pitch_keycenter=24 tune=13
<region> sample=48khz24bit\C1v9.wav lokey=23 hikey=25 lovel=65 hivel=72 pitch_keycenter=24 tune=13
<region> sample=48khz24bit\C1v10.wav lokey=23 hikey=25 lovel=73 hivel=80 pitch_keycenter=24 tune=13
<region> sample=48khz24bit\C1v11.wav lokey=23 hikey=25 lovel=81 hivel=88 pitch_keycenter=24 tune=13
<region> sample=48khz24bit\C1v12.wav lokey=23 hikey=25 lovel=89 hivel=96 pitch_keycenter=24 tune=13
<region> sample=48khz24bit\C1v13.wav lokey=23 hikey=25 lovel=97 hivel=104 pitch_keycenter=24 tune=13
<region> sample=48khz24bit\C1v14.wav lokey=23 hikey=25 lovel=105 hivel=112 pitch_keycenter=24 tune=13
<region> sample=48khz24bit\C1v15.wav lokey=23 hikey=25 lovel=113 hivel=120 pitch_keycenter=24 tune=13
<region> sample=48khz24bit\C1v16.wav lokey=23 hikey=25 lovel=121 pitch_keycenter=24 tune=13
<region> sample=48khz24bit\D#1v1.wav lokey=26 hikey=28 lovel=1 hivel=26 pitch_keycenter=27 tune=11
<region> sample=48khz24bit\D#1v2.wav lokey=26 hikey=28 lovel=27 hivel=34 pitch_keycenter=27 tune=11
<region> sample=48khz24bit\D#1v3.wav lokey=26 hikey=28 lovel=35 hivel=36 pitch_keycenter=27 tune=11
<region> sample=48khz24bit\D#1v4.wav lokey=26 hikey=28 lovel=37 hivel=43 pitch_keycenter=27 tune=11
<region> sample=48khz24bit\D#1v5.wav lokey=26 hikey=28 lovel=44 hivel=46 pitch_keycenter=27 tune=11
<region> sample=48khz24bit\D#1v6.wav lokey=26 hikey=28 lovel=47 hivel=50 pitch_keycenter=27 tune=11
<region> sample=48khz24bit\D#1v7.wav lokey=26 hikey=28 lovel=51 hivel=56 pitch_keycenter=27 tune=11
<region> sample=48khz24bit\D#1v8.wav lokey=26 hikey=28 lovel=57 hivel=64 pitch_keycenter=27 tune=11
<region> sample=48khz24bit\D#1v9.wav lokey=26 hikey=28 lovel=65 hivel=72 pitch_keycenter=27 tune=11
<region> sample=48khz24bit\D#1v10.wav lokey=26 hikey=28 lovel=73 hivel=80 pitch_keycenter=27 tune=11
<region> sample=48khz24bit\D#1v11.wav lokey=26 hikey=28 lovel=81 hivel=88 pitch_keycenter=27 tune=11
<region> sample=48khz24bit\D#1v12.wav lokey=26 hikey=28 lovel=89 hivel=96 pitch_keycenter=27 tune=11
<region> sample=48khz24bit\D#1v13.wav lokey=26 hikey=28 lovel=97 hivel=104 pitch_keycenter=27 tune=11
<region> sample=48khz24bit\D#1v14.wav lokey=26 hikey=28 lovel=105 hivel=112 pitch_keycenter=27 tune=11
<region> sample=48khz24bit\D#1v15.wav lokey=26 hikey=28 lovel=113 hivel=120 pitch_keycenter=27 tune=11
<region> sample=48khz24bit\D#1v16.wav lokey=26 hikey=28 lovel=121 pitch_keycenter=27 tune=11
<region> sample=48khz24bit\F#1v1.wav lokey=29 hikey=31 lovel=1 hivel=26 pitch_keycenter=30 tune=-3
<region> sample=48khz24bit\F#1v2.wav lokey=29 hikey=31 lovel=27 hivel=34 pitch_keycenter=30 tune=-3 
<region> sample=48khz24bit\F#1v3.wav lokey=29 hikey=31 lovel=35 hivel=36 pitch_keycenter=30 tune=-3 
<region> sample=48khz24bit\F#1v4.wav lokey=29 hikey=31 lovel=37 hivel=43 pitch_keycenter=30 tune=-3 
<region> sample=48khz24bit\F#1v5.wav lokey=29 hikey=31 lovel=44 hivel=46 pitch_keycenter=30 tune=-3 
<region> sample=48khz24bit\F#1v6.wav lokey=29 hikey=31 lovel=47 hivel=50 pitch_keycenter=30 tune=-3 
<region> sample=48khz24bit\F#1v7.wav lokey=29 hikey=31 lovel=51 hivel=56 pitch_keycenter=30 tune=-3 
<region> sample=48khz24bit\F#1v8.wav lokey=29 hikey=31 lovel=57 hivel=64 pitch_keycenter=30 tune=-3 
<region> sample=48khz24bit\F#1v9.wav lokey=29 hikey=31 lovel=65 hivel=72 pitch_keycenter=30 tune=-3 
<region> sample=48khz24bit\F#1v10.wav lokey=29 hikey=31 lovel=73 hivel=80 pitch_keycenter=30 tune=-3 
<region> sample=48khz24bit\F#1v11.wav lokey=29 hikey=31 lovel=81 hivel=88 pitch_keycenter=30 tune=-3 
<region> sample=48khz24bit\F#1v12.wav lokey=29 hikey=31 lovel=89 hivel=96 pitch_keycenter=30 tune=-3 
<region> sample=48khz24bit\F#1v13.wav lokey=29 hikey=31 lovel=97 hivel=104 pitch_keycenter=30 tune=-3 
<region> sample=48khz24bit\F#1v14.wav lokey=29 hikey=31 lovel=105 hivel=112 pitch_keycenter=30 tune=-3 
<region> sample=48khz24bit\F#1v15.wav lokey=29 hikey=31 lovel=113 hivel=120 pitch_keycenter=30 tune=-3 
<region> sample=48khz24bit\F#1v16.wav lokey=29 hikey=31 lovel=121 pitch_keycenter=30 tune=-3 
<region> sample=48khz24bit\A1v1.wav lokey=32 hikey=34 lovel=1 hivel=26 pitch_keycenter=33 tune=-9 
<region> sample=48khz24bit\A1v2.wav lokey=32 hikey=34 lovel=27 hivel=34 pitch_keycenter=33 tune=-9 
<region> sample=48khz24bit\A1v3.wav lokey=32 hikey=34 lovel=35 hivel=36 pitch_keycenter=33 tune=-9 
<region> sample=48khz24bit\A1v4.wav lokey=32 hikey=34 lovel=37 hivel=43 pitch_keycenter=33 tune=-9 
<region> sample=48khz24bit\A1v5.wav lokey=32 hikey=34 lovel=44 hivel=46 pitch_keycenter=33 tune=-9 
<region> sample=48khz24bit\A1v6.wav lokey=32 hikey=34 lovel=47 hivel=50 pitch_keycenter=33 tune=-9 
<region> sample=48khz24bit\A1v7.wav lokey=32 hikey=34 lovel=51 hivel=56 pitch_keycenter=33 tune=-9 
<region> sample=48khz24bit\A1v8.wav lokey=32 hikey=34 lovel=57 hivel=64 pitch_keycenter=33 tune=-9 
<region> sample=48khz24bit\A1v9.wav lokey=32 hikey=34 lovel=65 hivel=72 pitch_keycenter=33 tune=-9 
<region> sample=48khz24bit\A1v10.wav lokey=32 hikey=34 lovel=73 hivel=80 pitch_keycenter=33 tune=-9 
<region> sample=48khz24bit\A1v11.wav lokey=32 hikey=34 lovel=81 hivel=88 pitch_keycenter=33 tune=-9 
<region> sample=48khz24bit\A1v12.wav lokey=32 hikey=34 lovel=89 hivel=96 pitch_keycenter=33 tune=-9 
<region> sample=48khz24bit\A1v13.wav lokey=32 hikey=34 lovel=97 hivel=104 pitch_keycenter=33 tune=-9 
<region> sample=48khz24bit\A1v14.wav lokey=32 hikey=34 lovel=105 hivel=112 pitch_keycenter=33 tune=-9 
<region> sample=48khz24bit\A1v15.wav lokey=32 hikey=34 lovel=113 hivel=120 pitch_keycenter=33 tune=-9 
<region> sample=48khz24bit\A1v16.wav lokey=32 hikey=34 lovel=121 pitch_keycenter=33 tune=-9 
<region> sample=48khz24bit\C2v1.wav lokey=35 hikey=37 lovel=1 hivel=26 pitch_keycenter=36 tune=-9 
<region> sample=48khz24bit\C2v2.wav lokey=35 hikey=37 lovel=27 hivel=34 pitch_keycenter=36 tune=-9 
<region> sample=48khz24bit\C2v3.wav lokey=35 hikey=37 lovel=35 hivel=36 pitch_keycenter=36 tune=-9 
<region> sample=48khz24bit\C2v4.wav lokey=35 hikey=37 lovel=37 hivel=43 pitch_keycenter=36 tune=-9 
<region> sample=48khz24bit\C2v5.wav lokey=35 hikey=37 lovel=44 hivel=46 pitch_keycenter=36 tune=-9 
<region> sample=48khz24bit\C2v6.wav lokey=35 hikey=37 lovel=47 hivel=50 pitch_keycenter=36 tune=-9 
<region> sample=48khz24bit\C2v7.wav lokey=35 hikey=37 lovel=51 hivel=56 pitch_keycenter=36 tune=-9 
<region> sample=48khz24bit\C2v8.wav lokey=35 hikey=37 lovel=57 hivel=64 pitch_keycenter=36 tune=-9 
<region> sample=48khz24bit\C2v9.wav lokey=35 hikey=37 lovel=65 hivel=72 pitch_keycenter=36 tune=-9 
<region> sample=48khz24bit\C2v10.wav lokey=35 hikey=37 lovel=73 hivel=80 pitch_keycenter=36 tune=-9 
<region> sample=48khz24bit\C2v11.wav lokey=35 hikey=37 lovel=81 hivel=88 pitch_keycenter=36 tune=-9 
<region> sample=48khz24bit\C2v12.wav lokey=35 hikey=37 lovel=89 hivel=96 pitch_keycenter=36 tune=-9 
<region> sample=48khz24bit\C2v13.wav lokey=35 hikey=37 lovel=97 hivel=104 pitch_keycenter=36 tune=-9 
<region> sample=48khz24bit\C2v14.wav lokey=35 hikey=37 lovel=105 hivel=112 pitch_keycenter=36 tune=-9 
<region> sample=48khz24bit\C2v15.wav lokey=35 hikey=37 lovel=113 hivel=120 pitch_keycenter=36 tune=-9 
<region> sample=48khz24bit\C2v16.wav lokey=35 hikey=37 lovel=121 pitch_keycenter=36 tune=-9 
<region> sample=48khz24bit\D#2v1.wav lokey=38 hikey=40 lovel=1 hivel=26 pitch_keycenter=39 tune=-11 
<region> sample=48khz24bit\D#2v2.wav lokey=38 hikey=40 lovel=27 hivel=34 pitch_keycenter=39 tune=-11 
<region> sample=48khz24bit\D#2v3.wav lokey=38 hikey=40 lovel=35 hivel=36 pitch_keycenter=39 tune=-11 
<region> sample=48khz24bit\D#2v4.wav lokey=38 hikey=40 lovel=37 hivel=43 pitch_keycenter=39 tune=-11 
<region> sample=48khz24bit\D#2v5.wav lokey=38 hikey=40 lovel=44 hivel=46 pitch_keycenter=39 tune=-11 
<region> sample=48khz24bit\D#2v6.wav lokey=38 hikey=40 lovel=47 hivel=50 pitch_keycenter=39 tune=-11 
<region> sample=48khz24bit\D#2v7.wav lokey=38 hikey=40 lovel=51 hivel=56 pitch_keycenter=39 tune=-11 
<region> sample=48khz24bit\D#2v8.wav lokey=38 hikey=40 lovel=57 hivel=64 pitch_keycenter=39 tune=-11 
<region> sample=48khz24bit\D#2v9.wav lokey=38 hikey=40 lovel=65 hivel=72 pitch_keycenter=39 tune=-11 
<region> sample=48khz24bit\D#2v10.wav lokey=38 hikey=40 lovel=73 hivel=80 pitch_keycenter=39 tune=-11 
<region> sample=48khz24bit\D#2v11.wav lokey=38 hikey=40 lovel=81 hivel=88 pitch_keycenter=39 tune=-11 
<region> sample=48khz24bit\D#2v12.wav lokey=38 hikey=40 lovel=89 hivel=96 pitch_keycenter=39 tune=-11 
<region> sample=48khz24bit\D#2v13.wav lokey=38 hikey=40 lovel=97 hivel=104 pitch_keycenter=39 tune=-11 
<region> sample=48khz24bit\D#2v14.wav lokey=38 hikey=40 lovel=105 hivel=112 pitch_keycenter=39 tune=-11 
<region> sample=48khz24bit\D#2v15.wav lokey=38 hikey=40 lovel=113 hivel=120 pitch_keycenter=39 tune=-11 
<region> sample=48khz24bit\D#2v16.wav lokey=38 hikey=40 lovel=121 pitch_keycenter=39 tune=-11 
<region> sample=48khz24bit\F#2v1.wav lokey=41 hikey=43 lovel=1 hivel=26 pitch_keycenter=42 tune=-7 
<region> sample=48khz24bit\F#2v2.wav lokey=41 hikey=43 lovel=27 hivel=34 pitch_keycenter=42 tune=-7 
<region> sample=48khz24bit\F#2v3.wav lokey=41 hikey=43 lovel=35 hivel=36 pitch_keycenter=42 tune=-7 
<region> sample=48khz24bit\F#2v4.wav lokey=41 hikey=43 lovel=37 hivel=43 pitch_keycenter=42 tune=-7 
<region> sample=48khz24bit\F#2v5.wav lokey=41 hikey=43 lovel=44 hivel=46 pitch_keycenter=42 tune=-7 
<region> sample=48khz24bit\F#2v6.wav lokey=41 hikey=43 lovel=47 hivel=50 pitch_keycenter=42 tune=-7 
<region> sample=48khz24bit\F#2v7.wav lokey=41 hikey=43 lovel=51 hivel=56 pitch_keycenter=42 tune=-7 
<region> sample=48khz24bit\F#2v8.wav lokey=41 hikey=43 lovel=57 hivel=64 pitch_keycenter=42 tune=-7 
<region> sample=48khz24bit\F#2v9.wav lokey=41 hikey=43 lovel=65 hivel=72 pitch_keycenter=42 tune=-7 
<region> sample=48khz24bit\F#2v10.wav lokey=41 hikey=43 lovel=73 hivel=80 pitch_keycenter=42 tune=-7 
<region> sample=48khz24bit\F#2v11.wav lokey=41 hikey=43 lovel=81 hivel=88 pitch_keycenter=42 tune=-7 
<region> sample=48khz24bit\F#2v12.wav lokey=41 hikey=43 lovel=89 hivel=96 pitch_keycenter=42 tune=-7 
<region> sample=48khz24bit\F#2v13.wav lokey=41 hikey=43 lovel=97 hivel=104 pitch_keycenter=42 tune=-7 
<region> sample=48khz24bit\F#2v14.wav lokey=41 hikey=43 lovel=105 hivel=112 pitch_keycenter=42 tune=-7 
<region> sample=48khz24bit\F#2v15.wav lokey=41 hikey=43 lovel=113 hivel=120 pitch_keycenter=42 tune=-7 
<region> sample=48khz24bit\F#2v16.wav lokey=41 hikey=43 lovel=121 pitch_keycenter=42 tune=-7 
<region> sample=48khz24bit\A2v1.wav lokey=44 hikey=46 lovel=1 hivel=26 pitch_keycenter=45 tune=-4 
<region> sample=48khz24bit\A2v2.wav lokey=44 hikey=46 lovel=27 hivel=34 pitch_keycenter=45 tune=-4 
<region> sample=48khz24bit\A2v3.wav lokey=44 hikey=46 lovel=35 hivel=36 pitch_keycenter=45 tune=-4 
<region> sample=48khz24bit\A2v4.wav lokey=44 hikey=46 lovel=37 hivel=43 pitch_keycenter=45 tune=-4 
<region> sample=48khz24bit\A2v5.wav lokey=44 hikey=46 lovel=44 hivel=46 pitch_keycenter=45 tune=-4 
<region> sample=48khz24bit\A2v6.wav lokey=44 hikey=46 lovel=47 hivel=50 pitch_keycenter=45 tune=-4 
<region> sample=48khz24bit\A2v7.wav lokey=44 hikey=46 lovel=51 hivel=56 pitch_keycenter=45 tune=-4 
<region> sample=48khz24bit\A2v8.wav lokey=44 hikey=46 lovel=57 hivel=64 pitch_keycenter=45 tune=-4 
<region> sample=48khz24bit\A2v9.wav lokey=44 hikey=46 lovel=65 hivel=72 pitch_keycenter=45 tune=-4 
<region> sample=48khz24bit\A2v10.wav lokey=44 hikey=46 lovel=73 hivel=80 pitch_keycenter=45 tune=-4 
<region> sample=48khz24bit\A2v11.wav lokey=44 hikey=46 lovel=81 hivel=88 pitch_keycenter=45 tune=-4 
<region> sample=48khz24bit\A2v12.wav lokey=44 hikey=46 lovel=89 hivel=96 pitch_keycenter=45 tune=-4 
<region> sample=48khz24bit\A2v13.wav lokey=44 hikey=46 lovel=97 hivel=104 pitch_keycenter=45 tune=-4 
<region> sample=48khz24bit\A2v14.wav lokey=44 hikey=46 lovel=105 hivel=112 pitch_keycenter=45 tune=-4 
<region> sample=48khz24bit\A2v15.wav lokey=44 hikey=46 lovel=113 hivel=120 pitch_keycenter=45 tune=-4 
<region> sample=48khz24bit\A2v16.wav lokey=44 hikey=46 lovel=121 pitch_keycenter=45 tune=-4 
<region> sample=48khz24bit\C3v1.wav lokey=47 hikey=49 lovel=1 hivel=26 pitch_keycenter=48 
<region> sample=48khz24bit\C3v2.wav lokey=47 hikey=49 lovel=27 hivel=34 pitch_keycenter=48 
<region> sample=48khz24bit\C3v3.wav lokey=47 hikey=49 lovel=35 hivel=36 pitch_keycenter=48 
<region> sample=48khz24bit\C3v4.wav lokey=47 hikey=49 lovel=37 hivel=43 pitch_keycenter=48 
<region> sample=48khz24bit\C3v5.wav lokey=47 hikey=49 lovel=44 hivel=46 pitch_keycenter=48 
<region> sample=48khz24bit\C3v6.wav lokey=47 hikey=49 lovel=47 hivel=50 pitch_keycenter=48 
<region> sample=48khz24bit\C3v7.wav lokey=47 hikey=49 lovel=51 hivel=56 pitch_keycenter=48 
<region> sample=48khz24bit\C3v8.wav lokey=47 hikey=49 lovel=57 hivel=64 pitch_keycenter=48 
<region> sample=48khz24bit\C3v9.wav lokey=47 hikey=49 lovel=65 hivel=72 pitch_keycenter=48 
<region> sample=48khz24bit\C3v10.wav lokey=47 hikey=49 lovel=73 hivel=80 pitch_keycenter=48 
<region> sample=48khz24bit\C3v11.wav lokey=47 hikey=49 lovel=81 hivel=88 pitch_keycenter=48 
<region> sample=48khz24bit\C3v12.wav lokey=47 hikey=49 lovel=89 hivel=96 pitch_keycenter=48 
<region> sample=48khz24bit\C3v13.wav lokey=47 hikey=49 lovel=97 hivel=104 pitch_keycenter=48 
<region> sample=48khz24bit\C3v14.wav lokey=47 hikey=49 lovel=105 hivel=112 pitch_keycenter=48 
<region> sample=48khz24bit\C3v15.wav lokey=47 hikey=49 lovel=113 hivel=120 pitch_keycenter=48 
<region> sample=48khz24bit\C3v16.wav lokey=47 hikey=49 lovel=121 pitch_keycenter=48 
<region> sample=48khz24bit\D#3v1.wav lokey=50 hikey=52 lovel=1 hivel=26 pitch_keycenter=51 tune=-6 
<region> sample=48khz24bit\D#3v2.wav lokey=50 hikey=52 lovel=27 hivel=34 pitch_keycenter=51 tune=-6 
<region> sample=48khz24bit\D#3v3.wav lokey=50 hikey=52 lovel=35 hivel=36 pitch_keycenter=51 tune=-6 
<region> sample=48khz24bit\D#3v4.wav lokey=50 hikey=52 lovel=37 hivel=43 pitch_keycenter=51 tune=-6 
<region> sample=48khz24bit\D#3v5.wav lokey=50 hikey=52 lovel=44 hivel=46 pitch_keycenter=51 tune=-6 
<region> sample=48khz24bit\D#3v6.wav lokey=50 hikey=52 lovel=47 hivel=50 pitch_keycenter=51 tune=-6 
<region> sample=48khz24bit\D#3v7.wav lokey=50 hikey=52 lovel=51 hivel=56 pitch_keycenter=51 tune=-6 
<region> sample=48khz24bit\D#3v8.wav lokey=50 hikey=52 lovel=57 hivel=64 pitch_keycenter=51 tune=-6 
<region> sample=48khz24bit\D#3v9.wav lokey=50 hikey=52 lovel=65 hivel=72 pitch_keycenter=51 tune=-6 
<region> sample=48khz24bit\D#3v10.wav lokey=50 hikey=52 lovel=73 hivel=80 pitch_keycenter=51 tune=-6 
<region> sample=48khz24bit\D#3v11.wav lokey=50 hikey=52 lovel=81 hivel=88 pitch_keycenter=51 tune=-6 
<region> sample=48khz24bit\D#3v12.wav lokey=50 hikey=52 lovel=89 hivel=96 pitch_keycenter=51 tune=-6 
<region> sample=48khz24bit\D#3v13.wav lokey=50 hikey=52 lovel=97 hivel=104 pitch_keycenter=51 tune=-6 
<region> sample=48khz24bit\D#3v14.wav lokey=50 hikey=52 lovel=105 hivel=112 pitch_keycenter=51 tune=-6 
<region> sample=48khz24bit\D#3v15.wav lokey=50 hikey=52 lovel=113 hivel=120 pitch_keycenter=51 tune=-6 
<region> sample=48khz24bit\D#3v16.wav lokey=50 hikey=52 lovel=121 pitch_keycenter=51 tune=-6 
<region> sample=48khz24bit\F#3v1.wav lokey=53 hikey=55 lovel=1 hivel=26 pitch_keycenter=54 tune=-3  
<region> sample=48khz24bit\F#3v2.wav lokey=53 hikey=55 lovel=27 hivel=34 pitch_keycenter=54 tune=-3 
<region> sample=48khz24bit\F#3v3.wav lokey=53 hikey=55 lovel=35 hivel=36 pitch_keycenter=54 tune=-3 
<region> sample=48khz24bit\F#3v4.wav lokey=53 hikey=55 lovel=37 hivel=43 pitch_keycenter=54 tune=-3 
<region> sample=48khz24bit\F#3v5.wav lokey=53 hikey=55 lovel=44 hivel=46 pitch_keycenter=54 tune=-3 
<region> sample=48khz24bit\F#3v6.wav lokey=53 hikey=55 lovel=47 hivel=50 pitch_keycenter=54 tune=-3 
<region> sample=48khz24bit\F#3v7.wav lokey=53 hikey=55 lovel=51 hivel=56 pitch_keycenter=54 tune=-3 
<region> sample=48khz24bit\F#3v8.wav lokey=53 hikey=55 lovel=57 hivel=64 pitch_keycenter=54 tune=-3 
<region> sample=48khz24bit\F#3v9.wav lokey=53 hikey=55 lovel=65 hivel=72 pitch_keycenter=54 tune=-3 
<region> sample=48khz24bit\F#3v10.wav lokey=53 hikey=55 lovel=73 hivel=80 pitch_keycenter=54 tune=-3 
<region> sample=48khz24bit\F#3v11.wav lokey=53 hikey=55 lovel=81 hivel=88 pitch_keycenter=54 tune=-3 
<region> sample=48khz24bit\F#3v12.wav lokey=53 hikey=55 lovel=89 hivel=96 pitch_keycenter=54 tune=-3 
<region> sample=48khz24bit\F#3v13.wav lokey=53 hikey=55 lovel=97 hivel=104 pitch_keycenter=54 tune=-3 
<region> sample=48khz24bit\F#3v14.wav lokey=53 hikey=55 lovel=105 hivel=112 pitch_keycenter=54 tune=-3 
<region> sample=48khz24bit\F#3v15.wav lokey=53 hikey=55 lovel=113 hivel=120 pitch_keycenter=54 tune=-3 
<region> sample=48khz24bit\F#3v16.wav lokey=53 hikey=55 lovel=121 pitch_keycenter=54 tune=-3 
<region> sample=48khz24bit\A3v1.wav lokey=56 hikey=58 lovel=1 hivel=26 pitch_keycenter=57 tune=-3 
<region> sample=48khz24bit\A3v2.wav lokey=56 hikey=58 lovel=27 hivel=34 pitch_keycenter=57 tune=-3 
<region> sample=48khz24bit\A3v3.wav lokey=56 hikey=58 lovel=35 hivel=36 pitch_keycenter=57 tune=-3 
<region> sample=48khz24bit\A3v4.wav lokey=56 hikey=58 lovel=37 hivel=43 pitch_keycenter=57 tune=-3 
<region> sample=48khz24bit\A3v5.wav lokey=56 hikey=58 lovel=44 hivel=46 pitch_keycenter=57 tune=-3 
<region> sample=48khz24bit\A3v6.wav lokey=56 hikey=58 lovel=47 hivel=50 pitch_keycenter=57 tune=-3 
<region> sample=48khz24bit\A3v7.wav lokey=56 hikey=58 lovel=51 hivel=56 pitch_keycenter=57 tune=-3 
<region> sample=48khz24bit\A3v8.wav lokey=56 hikey=58 lovel=57 hivel=64 pitch_keycenter=57 tune=-3 
<region> sample=48khz24bit\A3v9.wav lokey=56 hikey=58 lovel=65 hivel=72 pitch_keycenter=57 tune=-3 
<region> sample=48khz24bit\A3v10.wav lokey=56 hikey=58 lovel=73 hivel=80 pitch_keycenter=57 tune=-3 
<region> sample=48khz24bit\A3v11.wav lokey=56 hikey=58 lovel=81 hivel=88 pitch_keycenter=57 tune=-3 
<region> sample=48khz24bit\A3v12.wav lokey=56 hikey=58 lovel=89 hivel=96 pitch_keycenter=57 tune=-3 
<region> sample=48khz24bit\A3v13.wav lokey=56 hikey=58 lovel=97 hivel=104 pitch_keycenter=57 tune=-3 
<region> sample=48khz24bit\A3v14.wav lokey=56 hikey=58 lovel=105 hivel=112 pitch_keycenter=57 tune=-3 
<region> sample=48khz24bit\A3v15.wav lokey=56 hikey=58 lovel=113 hivel=120 pitch_keycenter=57 tune=-3 
<region> sample=48khz24bit\A3v16.wav lokey=56 hikey=58 lovel=121 pitch_keycenter=57 tune=-3 
<region> sample=48khz24bit\C4v1.wav lokey=59 hikey=61 lovel=1 hivel=26 tune=-6 
<region> sample=48khz24bit\C4v2.wav lokey=59 hikey=61 lovel=27 hivel=34 tune=-6 
<region> sample=48khz24bit\C4v3.wav lokey=59 hikey=61 lovel=35 hivel=36 tune=-6 
<region> sample=48khz24bit\C4v4.wav lokey=59 hikey=61 lovel=37 hivel=43 tune=-6 
<region> sample=48khz24bit\C4v5.wav lokey=59 hikey=61 lovel=44 hivel=46 tune=-6 
<region> sample=48khz24bit\C4v6.wav lokey=59 hikey=61 lovel=47 hivel=50 tune=-6 
<region> sample=48khz24bit\C4v7.wav lokey=59 hikey=61 lovel=51 hivel=56 tune=-6 
<region> sample=48khz24bit\C4v8.wav lokey=59 hikey=61 lovel=57 hivel=64 tune=-6 
<region> sample=48khz24bit\C4v9.wav lokey=59 hikey=61 lovel=65 hivel=72 tune=-6 
<region> sample=48khz24bit\C4v10.wav lokey=59 hikey=61 lovel=73 hivel=80 tune=-6 
<region> sample=48khz24bit\C4v11.wav lokey=59 hikey=61 lovel=81 hivel=88 tune=-6 
<region> sample=48khz24bit\C4v12.wav lokey=59 hikey=61 lovel=89 hivel=96 tune=-6 
<region> sample=48khz24bit\C4v13.wav lokey=59 hikey=61 lovel=97 hivel=104 tune=-6 
<region> sample=48khz24bit\C4v14.wav lokey=59 hikey=61 lovel=105 hivel=112 tune=-6 
<region> sample=48khz24bit\C4v15.wav lokey=59 hikey=61 lovel=113 hivel=120 tune=-6 
<region> sample=48khz24bit\C4v16.wav lokey=59 hikey=61 lovel=121 tune=-6      
<region> sample=48khz24bit\D#4v1.wav lokey=62 hikey=64 lovel=1 hivel=26 pitch_keycenter=63 tune=-3 
<region> sample=48khz24bit\D#4v2.wav lokey=62 hikey=64 lovel=27 hivel=34 pitch_keycenter=63 tune=-3 
<region> sample=48khz24bit\D#4v3.wav lokey=62 hikey=64 lovel=35 hivel=36 pitch_keycenter=63 tune=-3 
<region> sample=48khz24bit\D#4v4.wav lokey=62 hikey=64 lovel=37 hivel=43 pitch_keycenter=63 tune=-3 
<region> sample=48khz24bit\D#4v5.wav lokey=62 hikey=64 lovel=44 hivel=46 pitch_keycenter=63 tune=-3 
<region> sample=48khz24bit\D#4v6.wav lokey=62 hikey=64 lovel=47 hivel=50 pitch_keycenter=63 tune=-3 
<region> sample=48khz24bit\D#4v7.wav lokey=62 hikey=64 lovel=51 hivel=56 pitch_keycenter=63 tune=-3 
<region> sample=48khz24bit\D#4v8.wav lokey=62 hikey=64 lovel=57 hivel=64 pitch_keycenter=63 tune=-3 
<region> sample=48khz24bit\D#4v9.wav lokey=62 hikey=64 lovel=65 hivel=72 pitch_keycenter=63 tune=-3 
<region> sample=48khz24bit\D#4v10.wav lokey=62 hikey=64 lovel=73 hivel=80 pitch_keycenter=63 tune=-3 
<region> sample=48khz24bit\D#4v11.wav lokey=62 hikey=64 lovel=81 hivel=88 pitch_keycenter=63 tune=-3 
<region> sample=48khz24bit\D#4v12.wav lokey=62 hikey=64 lovel=89 hivel=96 pitch_keycenter=63 tune=-3 
<region> sample=48khz24bit\D#4v13.wav lokey=62 hikey=64 lovel=97 hivel=104 pitch_keycenter=63 tune=-3 
<region> sample=48khz24bit\D#4v14.wav lokey=62 hikey=64 lovel=105 hivel=112 pitch_keycenter=63 tune=-3 
<region> sample=48khz24bit\D#4v15.wav lokey=62 hikey=64 lovel=113 hivel=120 pitch_keycenter=63 tune=-3 
<region> sample=48khz24bit\D#4v16.wav lokey=62 hikey=64 lovel=121 pitch_keycenter=63 tune=-3 
<region> sample=48khz24bit\F#4v1.wav lokey=65 hikey=67 lovel=1 hivel=26 pitch_keycenter=66 
<region> sample=48khz24bit\F#4v2.wav lokey=65 hikey=67 lovel=27 hivel=34 pitch_keycenter=66 
<region> sample=48khz24bit\F#4v3.wav lokey=65 hikey=67 lovel=35 hivel=36 pitch_keycenter=66 
<region> sample=48khz24bit\F#4v4.wav lokey=65 hikey=67 lovel=37 hivel=43 pitch_keycenter=66 
<region> sample=48khz24bit\F#4v5.wav lokey=65 hikey=67 lovel=44 hivel=46 pitch_keycenter=66 
<region> sample=48khz24bit\F#4v6.wav lokey=65 hikey=67 lovel=47 hivel=50 pitch_keycenter=66 
<region> sample=48khz24bit\F#4v7.wav lokey=65 hikey=67 lovel=51 hivel=56 pitch_keycenter=66 
<region> sample=48khz24bit\F#4v8.wav lokey=65 hikey=67 lovel=57 hivel=64 pitch_keycenter=66 
<region> sample=48khz24bit\F#4v9.wav lokey=65 hikey=67 lovel=65 hivel=72 pitch_keycenter=66 
<region> sample=48khz24bit\F#4v10.wav lokey=65 hikey=67 lovel=73 hivel=80 pitch_keycenter=66 
<region> sample=48khz24bit\F#4v11.wav lokey=65 hikey=67 lovel=81 hivel=88 pitch_keycenter=66 
<region> sample=48khz24bit\F#4v12.wav lokey=65 hikey=67 lovel=89 hivel=96 pitch_keycenter=66 
<region> sample=48khz24bit\F#4v13.wav lokey=65 hikey=67 lovel=97 hivel=104 pitch_keycenter=66 
<region> sample=48khz24bit\F#4v14.wav lokey=65 hikey=67 lovel=105 hivel=112 pitch_keycenter=66 
<region> sample=48khz24bit\F#4v15.wav lokey=65 hikey=67 lovel=113 hivel=120 pitch_keycenter=66 
<region> sample=48khz24bit\F#4v16.wav lokey=65 hikey=67 lovel=121 pitch_keycenter=66 
<region> sample=48khz24bit\A4v1.wav lokey=68 hikey=70 lovel=1 hivel=26 pitch_keycenter=69 tune=-4 
<region> sample=48khz24bit\A4v2.wav lokey=68 hikey=70 lovel=27 hivel=34 pitch_keycenter=69 tune=-4 
<region> sample=48khz24bit\A4v3.wav lokey=68 hikey=70 lovel=35 hivel=36 pitch_keycenter=69 tune=-4 
<region> sample=48khz24bit\A4v4.wav lokey=68 hikey=70 lovel=37 hivel=43 pitch_keycenter=69 tune=-4 
<region> sample=48khz24bit\A4v5.wav lokey=68 hikey=70 lovel=44 hivel=46 pitch_keycenter=69 tune=-4 
<region> sample=48khz24bit\A4v6.wav lokey=68 hikey=70 lovel=47 hivel=50 pitch_keycenter=69 tune=-4 
<region> sample=48khz24bit\A4v7.wav lokey=68 hikey=70 lovel=51 hivel=56 pitch_keycenter=69 tune=-4 
<region> sample=48khz24bit\A4v8.wav lokey=68 hikey=70 lovel=57 hivel=64 pitch_keycenter=69 tune=-4 
<region> sample=48khz24bit\A4v9.wav lokey=68 hikey=70 lovel=65 hivel=72 pitch_keycenter=69 tune=-4 
<region> sample=48khz24bit\A4v10.wav lokey=68 hikey=70 lovel=73 hivel=80 pitch_keycenter=69 tune=-4 
<region> sample=48khz24bit\A4v11.wav lokey=68 hikey=70 lovel=81 hivel=88 pitch_keycenter=69 tune=-4 
<region> sample=48khz24bit\A4v12.wav lokey=68 hikey=70 lovel=89 hivel=96 pitch_keycenter=69 tune=-4 
<region> sample=48khz24bit\A4v13.wav lokey=68 hikey=70 lovel=97 hivel=104 pitch_keycenter=69 tune=-4 
<region> sample=48khz24bit\A4v14.wav lokey=68 hikey=70 lovel=105 hivel=112 pitch_keycenter=69 tune=-4 
<region> sample=48khz24bit\A4v15.wav lokey=68 hikey=70 lovel=113 hivel=120 pitch_keycenter=69 tune=-4 
<region> sample=48khz24bit\A4v16.wav lokey=68 hikey=70 lovel=121 pitch_keycenter=69 tune=-4 
<region> sample=48khz24bit\C5v1.wav lokey=71 hikey=73 lovel=1 hivel=26 pitch_keycenter=72 tune=-8 
<region> sample=48khz24bit\C5v2.wav lokey=71 hikey=73 lovel=27 hivel=34 pitch_keycenter=72 tune=-8 
<region> sample=48khz24bit\C5v3.wav lokey=71 hikey=73 lovel=35 hivel=36 pitch_keycenter=72 tune=-8 
<region> sample=48khz24bit\C5v4.wav lokey=71 hikey=73 lovel=37 hivel=43 pitch_keycenter=72 tune=-8 
<region> sample=48khz24bit\C5v5.wav lokey=71 hikey=73 lovel=44 hivel=46 pitch_keycenter=72 tune=-8 
<region> sample=48khz24bit\C5v6.wav lokey=71 hikey=73 lovel=47 hivel=50 pitch_keycenter=72 tune=-8 
<region> sample=48khz24bit\C5v7.wav lokey=71 hikey=73 lovel=51 hivel=56 pitch_keycenter=72 tune=-8 
<region> sample=48khz24bit\C5v8.wav lokey=71 hikey=73 lovel=57 hivel=64 pitch_keycenter=72 tune=-8 
<region> sample=48khz24bit\C5v9.wav lokey=71 hikey=73 lovel=65 hivel=72 pitch_keycenter=72 tune=-8 
<region> sample=48khz24bit\C5v10.wav lokey=71 hikey=73 lovel=73 hivel=80 pitch_keycenter=72 tune=-8 
<region> sample=48khz24bit\C5v11.wav lokey=71 hikey=73 lovel=81 hivel=88 pitch_keycenter=72 tune=-8 
<region> sample=48khz24bit\C5v12.wav lokey=71 hikey=73 lovel=89 hivel=96 pitch_keycenter=72 tune=-8 
<region> sample=48khz24bit\C5v13.wav lokey=71 hikey=73 lovel=97 hivel=104 pitch_keycenter=72 tune=-8 
<region> sample=48khz24bit\C5v14.wav lokey=71 hikey=73 lovel=105 hivel=112 pitch_keycenter=72 tune=-8 
<region> sample=48khz24bit\C5v15.wav lokey=71 hikey=73 lovel=113 hivel=120 pitch_keycenter=72 tune=-8 
<region> sample=48khz24bit\C5v16.wav lokey=71 hikey=73 lovel=121 pitch_keycenter=72 tune=-8 
<region> sample=48khz24bit\D#5v1.wav lokey=74 hikey=76 lovel=1 hivel=26 pitch_keycenter=75 tune=-8 
<region> sample=48khz24bit\D#5v2.wav lokey=74 hikey=76 lovel=27 hivel=34 pitch_keycenter=75 tune=-8 
<region> sample=48khz24bit\D#5v3.wav lokey=74 hikey=76 lovel=35 hivel=36 pitch_keycenter=75 tune=-8 
<region> sample=48khz24bit\D#5v4.wav lokey=74 hikey=76 lovel=37 hivel=43 pitch_keycenter=75 tune=-8 
<region> sample=48khz24bit\D#5v5.wav lokey=74 hikey=76 lovel=44 hivel=46 pitch_keycenter=75 tune=-8 
<region> sample=48khz24bit\D#5v6.wav lokey=74 hikey=76 lovel=47 hivel=50 pitch_keycenter=75 tune=-8 
<region> sample=48khz24bit\D#5v7.wav lokey=74 hikey=76 lovel=51 hivel=56 pitch_keycenter=75 tune=-8 
<region> sample=48khz24bit\D#5v8.wav lokey=74 hikey=76 lovel=57 hivel=64 pitch_keycenter=75 tune=-8 
<region> sample=48khz24bit\D#5v9.wav lokey=74 hikey=76 lovel=65 hivel=72 pitch_keycenter=75 tune=-8 
<region> sample=48khz24bit\D#5v10.wav lokey=74 hikey=76 lovel=73 hivel=80 pitch_keycenter=75 tune=-8 
<region> sample=48khz24bit\D#5v11.wav lokey=74 hikey=76 lovel=81 hivel=88 pitch_keycenter=75 tune=-8 
<region> sample=48khz24bit\D#5v12.wav lokey=74 hikey=76 lovel=89 hivel=96 pitch_keycenter=75 tune=-8 
<region> sample=48khz24bit\D#5v13.wav lokey=74 hikey=76 lovel=97 hivel=104 pitch_keycenter=75 tune=-8 
<region> sample=48khz24bit\D#5v14.wav lokey=74 hikey=76 lovel=105 hivel=112 pitch_keycenter=75 tune=-8 
<region> sample=48khz24bit\D#5v15.wav lokey=74 hikey=76 lovel=113 hivel=120 pitch_keycenter=75 tune=-8 
<region> sample=48khz24bit\D#5v16.wav lokey=74 hikey=76 lovel=121 pitch_keycenter=75 tune=-8 
<region> sample=48khz24bit\F#5v1.wav lokey=77 hikey=79 lovel=1 hivel=26 pitch_keycenter=78 tune=-5 
<region> sample=48khz24bit\F#5v2.wav lokey=77 hikey=79 lovel=27 hivel=34 pitch_keycenter=78 tune=-5 
<region> sample=48khz24bit\F#5v3.wav lokey=77 hikey=79 lovel=35 hivel=36 pitch_keycenter=78 tune=-5 
<region> sample=48khz24bit\F#5v4.wav lokey=77 hikey=79 lovel=37 hivel=43 pitch_keycenter=78 tune=-5 
<region> sample=48khz24bit\F#5v5.wav lokey=77 hikey=79 lovel=44 hivel=46 pitch_keycenter=78 tune=-5 
<region> sample=48khz24bit\F#5v6.wav lokey=77 hikey=79 lovel=47 hivel=50 pitch_keycenter=78 tune=-5 
<region> sample=48khz24bit\F#5v7.wav lokey=77 hikey=79 lovel=51 hivel=56 pitch_keycenter=78 tune=-5 
<region> sample=48khz24bit\F#5v8.wav lokey=77 hikey=79 lovel=57 hivel=64 pitch_keycenter=78 tune=-5 
<region> sample=48khz24bit\F#5v9.wav lokey=77 hikey=79 lovel=65 hivel=72 pitch_keycenter=78 tune=-5 
<region> sample=48khz24bit\F#5v10.wav lokey=77 hikey=79 lovel=73 hivel=80 pitch_keycenter=78 tune=-5 
<region> sample=48khz24bit\F#5v11.wav lokey=77 hikey=79 lovel=81 hivel=88 pitch_keycenter=78 tune=-5 
<region> sample=48khz24bit\F#5v12.wav lokey=77 hikey=79 lovel=89 hivel=96 pitch_keycenter=78 tune=-5 
<region> sample=48khz24bit\F#5v13.wav lokey=77 hikey=79 lovel=97 hivel=104 pitch_keycenter=78 tune=-5 
<region> sample=48khz24bit\F#5v14.wav lokey=77 hikey=79 lovel=105 hivel=112 pitch_keycenter=78 tune=-5 
<region> sample=48khz24bit\F#5v15.wav lokey=77 hikey=79 lovel=113 hivel=120 pitch_keycenter=78 tune=-5
<region> sample=48khz24bit\F#5v16.wav lokey=77 hikey=79 lovel=121 pitch_keycenter=78 tune=-5 
<region> sample=48khz24bit\A5v1.wav lokey=80 hikey=82 lovel=1 hivel=26 pitch_keycenter=81 tune=-7 
<region> sample=48khz24bit\A5v2.wav lokey=80 hikey=82 lovel=27 hivel=34 pitch_keycenter=81 tune=-7 
<region> sample=48khz24bit\A5v3.wav lokey=80 hikey=82 lovel=35 hivel=36 pitch_keycenter=81 tune=-7 
<region> sample=48khz24bit\A5v4.wav lokey=80 hikey=82 lovel=37 hivel=43 pitch_keycenter=81 tune=-7 
<region> sample=48khz24bit\A5v5.wav lokey=80 hikey=82 lovel=44 hivel=46 pitch_keycenter=81 tune=-7 
<region> sample=48khz24bit\A5v6.wav lokey=80 hikey=82 lovel=47 hivel=50 pitch_keycenter=81 tune=-7 
<region> sample=48khz24bit\A5v7.wav lokey=80 hikey=82 lovel=51 hivel=56 pitch_keycenter=81 tune=-7 
<region> sample=48khz24bit\A5v8.wav lokey=80 hikey=82 lovel=57 hivel=64 pitch_keycenter=81 tune=-7 
<region> sample=48khz24bit\A5v9.wav lokey=80 hikey=82 lovel=65 hivel=72 pitch_keycenter=81 tune=-7
<region> sample=48khz24bit\A5v10.wav lokey=80 hikey=82 lovel=73 hivel=80 pitch_keycenter=81 tune=-7 
<region> sample=48khz24bit\A5v11.wav lokey=80 hikey=82 lovel=81 hivel=88 pitch_keycenter=81 tune=-7
<region> sample=48khz24bit\A5v12.wav lokey=80 hikey=82 lovel=89 hivel=96 pitch_keycenter=81 tune=-7 
<region> sample=48khz24bit\A5v13.wav lokey=80 hikey=82 lovel=97 hivel=104 pitch_keycenter=81 tune=-7 
<region> sample=48khz24bit\A5v14.wav lokey=80 hikey=82 lovel=105 hivel=112 pitch_keycenter=81 tune=-7 
<region> sample=48khz24bit\A5v15.wav lokey=80 hikey=82 lovel=113 hivel=120 pitch_keycenter=81 tune=-7 
<region> sample=48khz24bit\A5v16.wav lokey=80 hikey=82 lovel=121 pitch_keycenter=81 tune=-7 
<region> sample=48khz24bit\C6v1.wav lokey=83 hikey=85 lovel=1 hivel=26 pitch_keycenter=84 tune=-8 
<region> sample=48khz24bit\C6v2.wav lokey=83 hikey=85 lovel=27 hivel=34 pitch_keycenter=84 tune=-8 
<region> sample=48khz24bit\C6v3.wav lokey=83 hikey=85 lovel=35 hivel=36 pitch_keycenter=84 tune=-8 
<region> sample=48khz24bit\C6v4.wav lokey=83 hikey=85 lovel=37 hivel=43 pitch_keycenter=84 tune=-8 
<region> sample=48khz24bit\C6v5.wav lokey=83 hikey=85 lovel=44 hivel=46 pitch_keycenter=84 tune=-8 
<region> sample=48khz24bit\C6v6.wav lokey=83 hikey=85 lovel=47 hivel=50 pitch_keycenter=84 tune=-8 
<region> sample=48khz24bit\C6v7.wav lokey=83 hikey=85 lovel=51 hivel=56 pitch_keycenter=84 tune=-8 
<region> sample=48khz24bit\C6v8.wav lokey=83 hikey=85 lovel=57 hivel=64 pitch_keycenter=84 tune=-8 
<region> sample=48khz24bit\C6v9.wav lokey=83 hikey=85 lovel=65 hivel=72 pitch_keycenter=84 tune=-8 
<region> sample=48khz24bit\C6v10.wav lokey=83 hikey=85 lovel=73 hivel=80 pitch_keycenter=84 tune=-8 
<region> sample=48khz24bit\C6v11.wav lokey=83 hikey=85 lovel=81 hivel=88 pitch_keycenter=84 tune=-8 
<region> sample=48khz24bit\C6v12.wav lokey=83 hikey=85 lovel=89 hivel=96 pitch_keycenter=84 tune=-8 
<region> sample=48khz24bit\C6v13.wav lokey=83 hikey=85 lovel=97 hivel=104 pitch_keycenter=84 tune=-8 
<region> sample=48khz24bit\C6v14.wav lokey=83 hikey=85 lovel=105 hivel=112 pitch_keycenter=84 tune=-8 
<region> sample=48khz24bit\C6v15.wav lokey=83 hikey=85 lovel=113 hivel=120 pitch_keycenter=84 tune=-8 
<region> sample=48khz24bit\C6v16.wav lokey=83 hikey=85 lovel=121 pitch_keycenter=84 tune=-8 
<region> sample=48khz24bit\D#6v1.wav lokey=86 hikey=88 lovel=1 hivel=26 pitch_keycenter=87 tune=-12 
<region> sample=48khz24bit\D#6v2.wav lokey=86 hikey=88 lovel=27 hivel=34 pitch_keycenter=87 tune=-12 
<region> sample=48khz24bit\D#6v3.wav lokey=86 hikey=88 lovel=35 hivel=36 pitch_keycenter=87 tune=-12 
<region> sample=48khz24bit\D#6v4.wav lokey=86 hikey=88 lovel=37 hivel=43 pitch_keycenter=87 tune=-12 
<region> sample=48khz24bit\D#6v5.wav lokey=86 hikey=88 lovel=44 hivel=46 pitch_keycenter=87 tune=-12 
<region> sample=48khz24bit\D#6v6.wav lokey=86 hikey=88 lovel=47 hivel=50 pitch_keycenter=87 tune=-12 
<region> sample=48khz24bit\D#6v7.wav lokey=86 hikey=88 lovel=51 hivel=56 pitch_keycenter=87 tune=-12 
<region> sample=48khz24bit\D#6v8.wav lokey=86 hikey=88 lovel=57 hivel=64 pitch_keycenter=87 tune=-12 
<region> sample=48khz24bit\D#6v9.wav lokey=86 hikey=88 lovel=65 hivel=72 pitch_keycenter=87 tune=-12 
<region> sample=48khz24bit\D#6v10.wav lokey=86 hikey=88 lovel=73 hivel=80 pitch_keycenter=87 tune=-12 
<region> sample=48khz24bit\D#6v11.wav lokey=86 hikey=88 lovel=81 hivel=88 pitch_keycenter=87 tune=-12 
<region> sample=48khz24bit\D#6v12.wav lokey=86 hikey=88 lovel=89 hivel=96 pitch_keycenter=87 tune=-12 
<region> sample=48khz24bit\D#6v13.wav lokey=86 hikey=88 lovel=97 hivel=104 pitch_keycenter=87 tune=-12 
<region> sample=48khz24bit\D#6v14.wav lokey=86 hikey=88 lovel=105 hivel=112 pitch_keycenter=87 tune=-12 
<region> sample=48khz24bit\D#6v15.wav lokey=86 hikey=88 lovel=113 hivel=120 pitch_keycenter=87 tune=-12 
<region> sample=48khz24bit\D#6v16.wav lokey=86 hikey=88 lovel=121 pitch_keycenter=87 tune=-12 
//========================
//Notes without dampers
<group> amp_veltrack=73 ampeg_release=5

<region> sample=48khz24bit\F#6v1.wav lokey=89 hikey=91 lovel=1 hivel=26 pitch_keycenter=90 tune=-13 
<region> sample=48khz24bit\F#6v2.wav lokey=89 hikey=91 lovel=27 hivel=34 pitch_keycenter=90 tune=-13 
<region> sample=48khz24bit\F#6v3.wav lokey=89 hikey=91 lovel=35 hivel=36 pitch_keycenter=90 tune=-13 
<region> sample=48khz24bit\F#6v4.wav lokey=89 hikey=91 lovel=37 hivel=43 pitch_keycenter=90 tune=-13 
<region> sample=48khz24bit\F#6v5.wav lokey=89 hikey=91 lovel=44 hivel=46 pitch_keycenter=90 tune=-13 
<region> sample=48khz24bit\F#6v6.wav lokey=89 hikey=91 lovel=47 hivel=50 pitch_keycenter=90 tune=-13 
<region> sample=48khz24bit\F#6v7.wav lokey=89 hikey=91 lovel=51 hivel=56 pitch_keycenter=90 tune=-13 
<region> sample=48khz24bit\F#6v8.wav lokey=89 hikey=91 lovel=57 hivel=64 pitch_keycenter=90 tune=-13 
<region> sample=48khz24bit\F#6v9.wav lokey=89 hikey=91 lovel=65 hivel=72 pitch_keycenter=90 tune=-13 
<region> sample=48khz24bit\F#6v10.wav lokey=89 hikey=91 lovel=73 hivel=80 pitch_keycenter=90 tune=-13 
<region> sample=48khz24bit\F#6v11.wav lokey=89 hikey=91 lovel=81 hivel=88 pitch_keycenter=90 tune=-13 
<region> sample=48khz24bit\F#6v12.wav lokey=89 hikey=91 lovel=89 hivel=96 pitch_keycenter=90 tune=-13 
<region> sample=48khz24bit\F#6v13.wav lokey=89 hikey=91 lovel=97 hivel=104 pitch_keycenter=90 tune=-13 
<region> sample=48khz24bit\F#6v14.wav lokey=89 hikey=91 lovel=105 hivel=112 pitch_keycenter=90 tune=-13 
<region> sample=48khz24bit\F#6v15.wav lokey=89 hikey=91 lovel=113 hivel=120 pitch_keycenter=90 tune=-13 
<region> sample=48khz24bit\F#6v16.wav lokey=89 hikey=91 lovel=121 pitch_keycenter=90 tune=-13 
<region> sample=48khz24bit\A6v1.wav lokey=92 hikey=94 lovel=1 hivel=26 pitch_keycenter=93 tune=-12 
<region> sample=48khz24bit\A6v2.wav lokey=92 hikey=94 lovel=27 hivel=34 pitch_keycenter=93 tune=-12 
<region> sample=48khz24bit\A6v3.wav lokey=92 hikey=94 lovel=35 hivel=36 pitch_keycenter=93 tune=-12 
<region> sample=48khz24bit\A6v4.wav lokey=92 hikey=94 lovel=37 hivel=43 pitch_keycenter=93 tune=-12 
<region> sample=48khz24bit\A6v5.wav lokey=92 hikey=94 lovel=44 hivel=46 pitch_keycenter=93 tune=-12 
<region> sample=48khz24bit\A6v6.wav lokey=92 hikey=94 lovel=47 hivel=50 pitch_keycenter=93 tune=-12 
<region> sample=48khz24bit\A6v7.wav lokey=92 hikey=94 lovel=51 hivel=56 pitch_keycenter=93 tune=-12 
<region> sample=48khz24bit\A6v8.wav lokey=92 hikey=94 lovel=57 hivel=64 pitch_keycenter=93 tune=-12 
<region> sample=48khz24bit\A6v9.wav lokey=92 hikey=94 lovel=65 hivel=72 pitch_keycenter=93 tune=-12 
<region> sample=48khz24bit\A6v10.wav lokey=92 hikey=94 lovel=73 hivel=80 pitch_keycenter=93 tune=-12 
<region> sample=48khz24bit\A6v11.wav lokey=92 hikey=94 lovel=81 hivel=88 pitch_keycenter=93 tune=-12 
<region> sample=48khz24bit\A6v12.wav lokey=92 hikey=94 lovel=89 hivel=96 pitch_keycenter=93 tune=-12 
<region> sample=48khz24bit\A6v13.wav lokey=92 hikey=94 lovel=97 hivel=104 pitch_keycenter=93 tune=-12 
<region> sample=48khz24bit\A6v14.wav lokey=92 hikey=94 lovel=105 hivel=112 pitch_keycenter=93 tune=-12 
<region> sample=48khz24bit\A6v15.wav lokey=92 hikey=94 lovel=113 hivel=120 pitch_keycenter=93 tune=-12 
<region> sample=48khz24bit\A6v16.wav lokey=92 hikey=94 lovel=121 pitch_keycenter=93 tune=-12 
<region> sample=48khz24bit\C7v1.wav lokey=95 hikey=97 lovel=1 hivel=26 pitch_keycenter=96 tune=-17 
<region> sample=48khz24bit\C7v2.wav lokey=95 hikey=97 lovel=27 hivel=34 pitch_keycenter=96 tune=-17 
<region> sample=48khz24bit\C7v3.wav lokey=95 hikey=97 lovel=35 hivel=36 pitch_keycenter=96 tune=-17 
<region> sample=48khz24bit\C7v4.wav lokey=95 hikey=97 lovel=37 hivel=43 pitch_keycenter=96 tune=-17 
<region> sample=48khz24bit\C7v5.wav lokey=95 hikey=97 lovel=44 hivel=46 pitch_keycenter=96 tune=-17 
<region> sample=48khz24bit\C7v6.wav lokey=95 hikey=97 lovel=47 hivel=50 pitch_keycenter=96 tune=-17 
<region> sample=48khz24bit\C7v7.wav lokey=95 hikey=97 lovel=51 hivel=56 pitch_keycenter=96 tune=-17 
<region> sample=48khz24bit\C7v8.wav lokey=95 hikey=97 lovel=57 hivel=64 pitch_keycenter=96 tune=-17 
<region> sample=48khz24bit\C7v9.wav lokey=95 hikey=97 lovel=65 hivel=72 pitch_keycenter=96 tune=-17 
<region> sample=48khz24bit\C7v10.wav lokey=95 hikey=97 lovel=73 hivel=80 pitch_keycenter=96 tune=-17 
<region> sample=48khz24bit\C7v11.wav lokey=95 hikey=97 lovel=81 hivel=88 pitch_keycenter=96 tune=-17 
<region> sample=48khz24bit\C7v12.wav lokey=95 hikey=97 lovel=89 hivel=96 pitch_keycenter=96 tune=-17 
<region> sample=48khz24bit\C7v13.wav lokey=95 hikey=97 lovel=97 hivel=104 pitch_keycenter=96 tune=-17 
<region> sample=48khz24bit\C7v14.wav lokey=95 hikey=97 lovel=105 hivel=112 pitch_keycenter=96 tune=-17 
<region> sample=48khz24bit\C7v15.wav lokey=95 hikey=97 lovel=113 hivel=120 pitch_keycenter=96 tune=-17 
<region> sample=48khz24bit\C7v16.wav lokey=95 hikey=97 lovel=121 pitch_keycenter=96 tune=-17 
<region> sample=48khz24bit\D#7v1.wav lokey=98 hikey=100 lovel=1 hivel=26 pitch_keycenter=99 tune=-17 
<region> sample=48khz24bit\D#7v2.wav lokey=98 hikey=100 lovel=27 hivel=34 pitch_keycenter=99 tune=-17 
<region> sample=48khz24bit\D#7v3.wav lokey=98 hikey=100 lovel=35 hivel=36 pitch_keycenter=99 tune=-17 
<region> sample=48khz24bit\D#7v4.wav lokey=98 hikey=100 lovel=37 hivel=43 pitch_keycenter=99 tune=-17 
<region> sample=48khz24bit\D#7v5.wav lokey=98 hikey=100 lovel=44 hivel=46 pitch_keycenter=99 tune=-17 
<region> sample=48khz24bit\D#7v6.wav lokey=98 hikey=100 lovel=47 hivel=50 pitch_keycenter=99 tune=-17 
<region> sample=48khz24bit\D#7v7.wav lokey=98 hikey=100 lovel=51 hivel=56 pitch_keycenter=99 tune=-17 
<region> sample=48khz24bit\D#7v8.wav lokey=98 hikey=100 lovel=57 hivel=64 pitch_keycenter=99 tune=-17
<region> sample=48khz24bit\D#7v9.wav lokey=98 hikey=100 lovel=65 hivel=72 pitch_keycenter=99  tune=-17 
<region> sample=48khz24bit\D#7v10.wav lokey=98 hikey=100 lovel=73 hivel=80 pitch_keycenter=99 tune=-17 
<region> sample=48khz24bit\D#7v11.wav lokey=98 hikey=100 lovel=81 hivel=88 pitch_keycenter=99 tune=-17 
<region> sample=48khz24bit\D#7v12.wav lokey=98 hikey=100 lovel=89 hivel=96 pitch_keycenter=99 tune=-17 
<region> sample=48khz24bit\D#7v13.wav lokey=98 hikey=100 lovel=97 hivel=104 pitch_keycenter=99 tune=-17 
<region> sample=48khz24bit\D#7v14.wav lokey=98 hikey=100 lovel=105 hivel=112 pitch_keycenter=99 tune=-17 
<region> sample=48khz24bit\D#7v15.wav lokey=98 hikey=100 lovel=113 hivel=120 pitch_keycenter=99 tune=-17 
<region> sample=48khz24bit\D#7v16.wav lokey=98 hikey=100 lovel=121 pitch_keycenter=99 tune=-17 
<region> sample=48khz24bit\F#7v1.wav lokey=101 hikey=103 lovel=1 hivel=26 pitch_keycenter=102 tune=-27 
<region> sample=48khz24bit\F#7v2.wav lokey=101 hikey=103 lovel=27 hivel=34 pitch_keycenter=102 tune=-27 
<region> sample=48khz24bit\F#7v3.wav lokey=101 hikey=103 lovel=35 hivel=36 pitch_keycenter=102 tune=-27 
<region> sample=48khz24bit\F#7v4.wav lokey=101 hikey=103 lovel=37 hivel=43 pitch_keycenter=102 tune=-27 
<region> sample=48khz24bit\F#7v5.wav lokey=101 hikey=103 lovel=44 hivel=46 pitch_keycenter=102 tune=-27 
<region> sample=48khz24bit\F#7v6.wav lokey=101 hikey=103 lovel=47 hivel=50 pitch_keycenter=102 tune=-27 
<region> sample=48khz24bit\F#7v7.wav lokey=101 hikey=103 lovel=51 hivel=56 pitch_keycenter=102 tune=-27 
<region> sample=48khz24bit\F#7v8.wav lokey=101 hikey=103 lovel=57 hivel=64 pitch_keycenter=102 tune=-27 
<region> sample=48khz24bit\F#7v9.wav lokey=101 hikey=103 lovel=65 hivel=72 pitch_keycenter=102 tune=-27 
<region> sample=48khz24bit\F#7v10.wav lokey=101 hikey=103 lovel=73 hivel=80 pitch_keycenter=102 tune=-27 
<region> sample=48khz24bit\F#7v11.wav lokey=101 hikey=103 lovel=81 hivel=88 pitch_keycenter=102 tune=-27 
<region> sample=48khz24bit\F#7v12.wav lokey=101 hikey=103 lovel=89 hivel=96 pitch_keycenter=102 tune=-27 
<region> sample=48khz24bit\F#7v13.wav lokey=101 hikey=103 lovel=97 hivel=104 pitch_keycenter=102 tune=-27 
<region> sample=48khz24bit\F#7v14.wav lokey=101 hikey=103 lovel=105 hivel=112 pitch_keycenter=102 tune=-27 
<region> sample=48khz24bit\F#7v15.wav lokey=101 hikey=103 lovel=113 hivel=120 pitch_keycenter=102 tune=-27 
<region> sample=48khz24bit\F#7v16.wav lokey=101 hikey=103 lovel=121 pitch_keycenter=102 tune=-27 
<region> sample=48khz24bit\A7v1.wav lokey=104 hikey=106 lovel=1 hivel=26 pitch_keycenter=105 tune=-38 
<region> sample=48khz24bit\A7v2.wav lokey=104 hikey=106 lovel=27 hivel=34 pitch_keycenter=105 tune=-38 
<region> sample=48khz24bit\A7v3.wav lokey=104 hikey=106 lovel=35 hivel=36 pitch_keycenter=105 tune=-38 
<region> sample=48khz24bit\A7v4.wav lokey=104 hikey=106 lovel=37 hivel=43 pitch_keycenter=105 tune=-38 
<region> sample=48khz24bit\A7v5.wav lokey=104 hikey=106 lovel=44 hivel=46 pitch_keycenter=105 tune=-38 
<region> sample=48khz24bit\A7v6.wav lokey=104 hikey=106 lovel=47 hivel=50 pitch_keycenter=105 tune=-38 
<region> sample=48khz24bit\A7v7.wav lokey=104 hikey=106 lovel=51 hivel=56 pitch_keycenter=105 tune=-38 
<region> sample=48khz24bit\A7v8.wav lokey=104 hikey=106 lovel=57 hivel=64 pitch_keycenter=105 tune=-38 
<region> sample=48khz24bit\A7v9.wav lokey=104 hikey=106 lovel=65 hivel=72 pitch_keycenter=105 tune=-38 
<region> sample=48khz24bit\A7v10.wav lokey=104 hikey=106 lovel=73 hivel=80 pitch_keycenter=105 tune=-38 
<region> sample=48khz24bit\A7v11.wav lokey=104 hikey=106 lovel=81 hivel=88 pitch_keycenter=105 tune=-38 
<region> sample=48khz24bit\A7v12.wav lokey=104 hikey=106 lovel=89 hivel=96 pitch_keycenter=105 tune=-38 
<region> sample=48khz24bit\A7v13.wav lokey=104 hikey=106 lovel=97 hivel=104 pitch_keycenter=105 tune=-38 
<region> sample=48khz24bit\A7v14.wav lokey=104 hikey=106 lovel=105 hivel=112 pitch_keycenter=105 tune=-38 
<region> sample=48khz24bit\A7v15.wav lokey=104 hikey=106 lovel=113 hivel=120 pitch_keycenter=105 tune=-38 
<region> sample=48khz24bit\A7v16.wav lokey=104 hikey=106 lovel=121 pitch_keycenter=105 tune=-38 
<region> sample=48khz24bit\C8v1.wav lokey=107 hikey=108 lovel=1 hivel=26 pitch_keycenter=108 tune=-38 
<region> sample=48khz24bit\C8v2.wav lokey=107 hikey=108 lovel=27 hivel=34 pitch_keycenter=108 tune=-38 
<region> sample=48khz24bit\C8v3.wav lokey=107 hikey=108 lovel=35 hivel=36 pitch_keycenter=108 tune=-38 
<region> sample=48khz24bit\C8v4.wav lokey=107 hikey=108 lovel=37 hivel=43 pitch_keycenter=108 tune=-38 
<region> sample=48khz24bit\C8v5.wav lokey=107 hikey=108 lovel=44 hivel=46 pitch_keycenter=108 tune=-38 
<region> sample=48khz24bit\C8v6.wav lokey=107 hikey=108 lovel=47 hivel=50 pitch_keycenter=108 tune=-38 
<region> sample=48khz24bit\C8v7.wav lokey=107 hikey=108 lovel=51 hivel=56 pitch_keycenter=108 tune=-38 
<region> sample=48khz24bit\C8v8.wav lokey=107 hikey=108 lovel=57 hivel=64 pitch_keycenter=108 tune=-38 
<region> sample=48khz24bit\C8v9.wav lokey=107 hikey=108 lovel=65 hivel=72 pitch_keycenter=108 tune=-38 
<region> sample=48khz24bit\C8v10.wav lokey=107 hikey=108 lovel=73 hivel=80 pitch_keycenter=108 tune=-38 
<region> sample=48khz24bit\C8v11.wav lokey=107 hikey=108 lovel=81 hivel=88 pitch_keycenter=108 tune=-38 
<region> sample=48khz24bit\C8v12.wav lokey=107 hikey=108 lovel=89 hivel=96 pitch_keycenter=108 tune=-38 
<region> sample=48khz24bit\C8v13.wav lokey=107 hikey=108 lovel=97 hivel=104 pitch_keycenter=108 tune=-38 
<region> sample=48khz24bit\C8v14.wav lokey=107 hikey=108 lovel=105 hivel=112 pitch_keycenter=108 tune=-38 
<region> sample=48khz24bit\C8v15.wav lokey=107 hikey=108 lovel=113 hivel=120 pitch_keycenter=108 tune=-38 
<region> sample=48khz24bit\C8v16.wav lokey=107 hikey=108 lovel=121 pitch_keycenter=108 tune=-38 
//Release string resonances
<group> trigger=release volume=-4 amp_veltrack=94 rt_decay=6

<region> sample=48khz24bit\harmLA0.wav lokey=20 hikey=22 lovel=45 pitch_keycenter=21 
<region> sample=48khz24bit\harmLC1.wav lokey=23 hikey=25 lovel=45 pitch_keycenter=24 
<region> sample=48khz24bit\harmLD#1.wav lokey=26 hikey=28 lovel=45 pitch_keycenter=27 
//========================
<group> trigger=release volume=-4 amp_veltrack=94 rt_decay=7

<region> sample=48khz24bit\harmLF#1.wav lokey=29 hikey=31 lovel=45 pitch_keycenter=30 
<region> sample=48khz24bit\harmLA1.wav lokey=32 hikey=34 lovel=45 pitch_keycenter=33 
<region> sample=48khz24bit\harmLC2.wav lokey=35 hikey=37 lovel=45 pitch_keycenter=36 
//========================
<group> trigger=release volume=-4 amp_veltrack=90 rt_decay=8 

<region> sample=48khz24bit\harmLD#2.wav lokey=38 hikey=40 lovel=45 pitch_keycenter=39 
<region> sample=48khz24bit\harmLF#2.wav lokey=41 hikey=43 lovel=45 pitch_keycenter=42 
<region> sample=48khz24bit\harmLA2.wav lokey=44 hikey=46 lovel=45 pitch_keycenter=45 
<region> sample=48khz24bit\harmLC3.wav lokey=47 hikey=49 lovel=45 pitch_keycenter=48 
//========================
<group> trigger=release volume=-4 amp_veltrack=90 rt_decay=9

<region> sample=48khz24bit\harmLD#3.wav lokey=50 hikey=52 lovel=45 pitch_keycenter=51 
<region> sample=48khz24bit\harmLF#3.wav lokey=53 hikey=55 lovel=45 pitch_keycenter=54 
<region> sample=48khz24bit\harmLA3.wav lokey=56 hikey=58 lovel=45 pitch_keycenter=57 
<region> sample=48khz24bit\harmLC4.wav lokey=59 hikey=61 lovel=45
<region> sample=48khz24bit\harmLD#4.wav lokey=62 hikey=64 lovel=45 pitch_keycenter=63 
<region> sample=48khz24bit\harmLF#4.wav lokey=65 hikey=67 lovel=45 pitch_keycenter=66 
<region> sample=48khz24bit\harmLA4.wav lokey=68 hikey=70 lovel=45 pitch_keycenter=69 
<region> sample=48khz24bit\harmLC5.wav lokey=71 hikey=73 lovel=45 pitch_keycenter=72 
<region> sample=48khz24bit\harmLD#5.wav lokey=74 hikey=76 lovel=45 pitch_keycenter=75 
<region> sample=48khz24bit\harmLF#5.wav lokey=77 hikey=79 lovel=45 pitch_keycenter=78 
<region> sample=48khz24bit\harmLA5.wav lokey=80 hikey=82 lovel=45 pitch_keycenter=81 
<region> sample=48khz24bit\harmLC6.wav lokey=83 hikey=85 lovel=45 pitch_keycenter=84 
<region> sample=48khz24bit\harmLD#6.wav lokey=86 hikey=88 lovel=45 pitch_keycenter=87 
//========================
<group> trigger=release amp_veltrack=95 rt_decay=7

<region> sample=48khz24bit\harmSA0.wav lokey=20 hikey=22 hivel=44 pitch_keycenter=21 
<region> sample=48khz24bit\harmSC1.wav lokey=23 hikey=25 hivel=44 pitch_keycenter=24 
<region> sample=48khz24bit\harmSD#1.wav lokey=26 hikey=28 hivel=44 pitch_keycenter=27 
<region> sample=48khz24bit\harmSF#1.wav lokey=29 hikey=31 hivel=44 pitch_keycenter=30 
<region> sample=48khz24bit\harmSA1.wav lokey=32 hikey=34 hivel=44 pitch_keycenter=33 
<region> sample=48khz24bit\harmSC2.wav lokey=35 hikey=37 hivel=44 pitch_keycenter=36 
<region> sample=48khz24bit\harmSD#2.wav lokey=38 hikey=40 hivel=44 pitch_keycenter=39 
<region> sample=48khz24bit\harmSF#2.wav lokey=41 hikey=43 hivel=44 pitch_keycenter=42 
//=======================
<group> trigger=release amp_veltrack=90 rt_decay=7

<region> sample=48khz24bit\harmSA2.wav lokey=44 hikey=46 hivel=44 pitch_keycenter=45 
<region> sample=48khz24bit\harmSC3.wav lokey=47 hikey=49 hivel=44 pitch_keycenter=48 
<region> sample=48khz24bit\harmSD#3.wav lokey=50 hikey=52 hivel=44 pitch_keycenter=51 
<region> sample=48khz24bit\harmSF#3.wav lokey=53 hikey=55 hivel=44 pitch_keycenter=54 
<region> sample=48khz24bit\harmSA3.wav lokey=56 hikey=58 hivel=44 pitch_keycenter=57 
<region> sample=48khz24bit\harmSC4.wav lokey=59 hikey=61 hivel=44 
<region> sample=48khz24bit\harmSD#4.wav lokey=62 hikey=64 hivel=44 pitch_keycenter=63 
<region> sample=48khz24bit\harmSF#4.wav lokey=65 hikey=67 hivel=44 pitch_keycenter=66 
<region> sample=48khz24bit\harmSA4.wav lokey=68 hikey=70 hivel=44 pitch_keycenter=69 
<region> sample=48khz24bit\harmSC5.wav lokey=71 hikey=73 hivel=44 pitch_keycenter=72 
<region> sample=48khz24bit\harmSD#5.wav lokey=74 hikey=76 hivel=44 pitch_keycenter=75 
<region> sample=48khz24bit\harmSF#5.wav lokey=77 hikey=79 hivel=44 pitch_keycenter=78 
<region> sample=48khz24bit\harmSA5.wav lokey=80 hikey=82 hivel=44 pitch_keycenter=81 
<region> sample=48khz24bit\harmSC6.wav lokey=83 hikey=85 hivel=44 pitch_keycenter=84 
<region> sample=48khz24bit\harmSD#6.wav lokey=86 hikey=88 hivel=44 pitch_keycenter=87 
//========================
<group> trigger=release amp_veltrack=96 rt_decay=2

<region> sample=48khz24bit\harmV3A0.wav lokey=20 hikey=22 pitch_keycenter=21 
<region> sample=48khz24bit\harmV3C1.wav lokey=23 hikey=25 pitch_keycenter=24 
<region> sample=48khz24bit\harmV3D#1.wav lokey=26 hikey=28 pitch_keycenter=27 
<region> sample=48khz24bit\harmV3F#1.wav lokey=29 hikey=31 pitch_keycenter=30 
<region> sample=48khz24bit\harmV3A1.wav lokey=32 hikey=34 pitch_keycenter=33 
<region> sample=48khz24bit\harmV3C2.wav lokey=35 hikey=37 pitch_keycenter=36 
<region> sample=48khz24bit\harmV3D#2.wav lokey=38 hikey=40 pitch_keycenter=39 
<region> sample=48khz24bit\harmV3F#2.wav lokey=41 hikey=43 pitch_keycenter=42 
<region> sample=48khz24bit\harmV3A2.wav lokey=44 hikey=46 pitch_keycenter=45 
<region> sample=48khz24bit\harmV3C3.wav lokey=47 hikey=49 pitch_keycenter=48 
<region> sample=48khz24bit\harmV3D#3.wav lokey=50 hikey=52 pitch_keycenter=51 
<region> sample=48khz24bit\harmV3F#3.wav lokey=53 hikey=55 pitch_keycenter=54 
<region> sample=48khz24bit\harmV3A3.wav lokey=56 hikey=58 pitch_keycenter=57 
<region> sample=48khz24bit\harmV3C4.wav lokey=59 hikey=61 
<region> sample=48khz24bit\harmV3D#4.wav lokey=62 hikey=64 pitch_keycenter=63 
<region> sample=48khz24bit\harmV3F#4.wav lokey=65 hikey=67 pitch_keycenter=66 
<region> sample=48khz24bit\harmV3A4.wav lokey=68 hikey=70 pitch_keycenter=69 
<region> sample=48khz24bit\harmV3C5.wav lokey=71 hikey=73 pitch_keycenter=72 
<region> sample=48khz24bit\harmV3D#5.wav lokey=74 hikey=76 pitch_keycenter=75 
<region> sample=48khz24bit\harmV3F#5.wav lokey=77 hikey=79 pitch_keycenter=78 
<region> sample=48khz24bit\harmV3A5.wav lokey=80 hikey=82 pitch_keycenter=81 
<region> sample=48khz24bit\harmV3C6.wav lokey=83 hikey=85 pitch_keycenter=84 
<region> sample=48khz24bit\harmV3D#6.wav lokey=86 hikey=88 pitch_keycenter=87 
//======================
//HammerNoise
<group> trigger=release pitch_keytrack=0 volume=-37 amp_veltrack=82 rt_decay=2

<region> sample=48khz24bit\rel1.wav lokey=21 hikey=21
<region> sample=48khz24bit\rel2.wav lokey=22 hikey=22 
<region> sample=48khz24bit\rel3.wav lokey=23 hikey=23 
<region> sample=48khz24bit\rel4.wav lokey=24 hikey=24 
<region> sample=48khz24bit\rel5.wav lokey=25 hikey=25 
<region> sample=48khz24bit\rel6.wav lokey=26 hikey=26 
<region> sample=48khz24bit\rel7.wav lokey=27 hikey=27 
<region> sample=48khz24bit\rel8.wav lokey=28 hikey=28 
<region> sample=48khz24bit\rel9.wav lokey=29 hikey=29    
<region> sample=48khz24bit\rel10.wav lokey=30 hikey=30 
<region> sample=48khz24bit\rel11.wav lokey=31 hikey=31 
<region> sample=48khz24bit\rel12.wav lokey=32 hikey=32 
<region> sample=48khz24bit\rel13.wav lokey=33 hikey=33 
<region> sample=48khz24bit\rel14.wav lokey=34 hikey=34 
<region> sample=48khz24bit\rel15.wav lokey=35 hikey=35 
<region> sample=48khz24bit\rel16.wav lokey=36 hikey=36 
<region> sample=48khz24bit\rel17.wav lokey=37 hikey=37 
<region> sample=48khz24bit\rel18.wav lokey=38 hikey=38 
<region> sample=48khz24bit\rel19.wav lokey=39 hikey=39 
<region> sample=48khz24bit\rel20.wav lokey=40 hikey=40 
<region> sample=48khz24bit\rel21.wav lokey=41 hikey=41 
<region> sample=48khz24bit\rel22.wav lokey=42 hikey=42 
<region> sample=48khz24bit\rel23.wav lokey=43 hikey=43 
<region> sample=48khz24bit\rel24.wav lokey=44 hikey=44 
<region> sample=48khz24bit\rel25.wav lokey=45 hikey=45 
<region> sample=48khz24bit\rel26.wav lokey=46 hikey=46 
<region> sample=48khz24bit\rel27.wav lokey=47 hikey=47 
<region> sample=48khz24bit\rel28.wav lokey=48 hikey=48 
<region> sample=48khz24bit\rel29.wav lokey=49 hikey=49
<region> sample=48khz24bit\rel30.wav lokey=50 hikey=50 
<region> sample=48khz24bit\rel31.wav lokey=51 hikey=51 
<region> sample=48khz24bit\rel32.wav lokey=52 hikey=52 
<region> sample=48khz24bit\rel33.wav lokey=53 hikey=53 
<region> sample=48khz24bit\rel34.wav lokey=54 hikey=54 
<region> sample=48khz24bit\rel35.wav lokey=55 hikey=55 
<region> sample=48khz24bit\rel36.wav lokey=56 hikey=56 
<region> sample=48khz24bit\rel37.wav lokey=57 hikey=57 
<region> sample=48khz24bit\rel38.wav lokey=58 hikey=58 
<region> sample=48khz24bit\rel39.wav lokey=59 hikey=59
<region> sample=48khz24bit\rel40.wav lokey=60 hikey=60 
<region> sample=48khz24bit\rel41.wav lokey=61 hikey=61 
<region> sample=48khz24bit\rel42.wav lokey=62 hikey=62 
<region> sample=48khz24bit\rel43.wav lokey=63 hikey=63 
<region> sample=48khz24bit\rel44.wav lokey=64 hikey=64 
<region> sample=48khz24bit\rel45.wav lokey=65 hikey=65 
<region> sample=48khz24bit\rel46.wav lokey=66 hikey=66 
<region> sample=48khz24bit\rel47.wav lokey=67 hikey=67 
<region> sample=48khz24bit\rel48.wav lokey=68 hikey=68 
<region> sample=48khz24bit\rel49.wav lokey=69 hikey=69
<region> sample=48khz24bit\rel50.wav lokey=70 hikey=70 
<region> sample=48khz24bit\rel51.wav lokey=71 hikey=71 
<region> sample=48khz24bit\rel52.wav lokey=72 hikey=72 
<region> sample=48khz24bit\rel53.wav lokey=73 hikey=73 
<region> sample=48khz24bit\rel54.wav lokey=74 hikey=74 
<region> sample=48khz24bit\rel55.wav lokey=75 hikey=75 
<region> sample=48khz24bit\rel56.wav lokey=76 hikey=76 
<region> sample=48khz24bit\rel57.wav lokey=77 hikey=77 
<region> sample=48khz24bit\rel58.wav lokey=78 hikey=78 
<region> sample=48khz24bit\rel59.wav lokey=79 hikey=79 
<region> sample=48khz24bit\rel60.wav lokey=80 hikey=80     
<region> sample=48khz24bit\rel61.wav lokey=81 hikey=81
<region> sample=48khz24bit\rel62.wav lokey=82 hikey=82 
<region> sample=48khz24bit\rel63.wav lokey=83 hikey=83 
<region> sample=48khz24bit\rel64.wav lokey=84 hikey=84 
<region> sample=48khz24bit\rel65.wav lokey=85 hikey=85 
<region> sample=48khz24bit\rel66.wav lokey=86 hikey=86 
<region> sample=48khz24bit\rel67.wav lokey=87 hikey=87 
<region> sample=48khz24bit\rel68.wav lokey=88 hikey=88 
<region> sample=48khz24bit\rel69.wav lokey=89 hikey=89
<region> sample=48khz24bit\rel70.wav lokey=90 hikey=90 
<region> sample=48khz24bit\rel71.wav lokey=91 hikey=91 
<region> sample=48khz24bit\rel72.wav lokey=92 hikey=92 
<region> sample=48khz24bit\rel73.wav lokey=93 hikey=93 
<region> sample=48khz24bit\rel74.wav lokey=94 hikey=94 
<region> sample=48khz24bit\rel75.wav lokey=95 hikey=95 
<region> sample=48khz24bit\rel76.wav lokey=96 hikey=96 
<region> sample=48khz24bit\rel77.wav lokey=97 hikey=97 
<region> sample=48khz24bit\rel78.wav lokey=98 hikey=98 
<region> sample=48khz24bit\rel79.wav lokey=99 hikey=99
<region> sample=48khz24bit\rel80.wav lokey=100 hikey=100 
<region> sample=48khz24bit\rel81.wav lokey=101 hikey=101 
<region> sample=48khz24bit\rel82.wav lokey=102 hikey=102 
<region> sample=48khz24bit\rel83.wav lokey=103 hikey=103 
<region> sample=48khz24bit\rel84.wav lokey=104 hikey=104 
<region> sample=48khz24bit\rel85.wav lokey=105 hikey=105 
<region> sample=48khz24bit\rel86.wav lokey=106 hikey=106 
<region> sample=48khz24bit\rel87.wav lokey=107 hikey=107 
<region> sample=48khz24bit\rel88.wav lokey=108 hikey=108
//======================
//pedalAction

<group> group=1 hikey=-1 lokey=-1 on_locc64=126 on_hicc64=127 off_by=2 volume=-20

<region> sample=48khz24bit\pedalD1.wav lorand=0 hirand=0.5
<region> sample=48khz24bit\pedalD2.wav lorand=0.5 hirand=1

<group> group=2 hikey=-1 lokey=-1 on_locc64=0 on_hicc64=1 volume=-19

<region> sample=48khz24bit\pedalU1.wav lorand=0 hirand=0.5
<region> sample=48khz24bit\pedalU2.wav lorand=0.5 hirand=1
